<svg width="53" height="53" viewBox="0 0 53 53" fill="none" xmlns="http://www.w3.org/2000/svg">
<path d="M50 25C50 38.8071 38.8071 50 25 50C11.1929 50 0 38.8071 0 25C0 11.1929 11.1929 0 25 0C38.8071 0 50 11.1929 50 25Z" fill="#292929"/>
<path d="M36.7683 14.0777C34.6149 13.1092 32.2834 12.4062 29.8548 12.0001C29.8335 11.9994 29.8123 12.0033 29.7927 12.0114C29.7731 12.0195 29.7556 12.0316 29.7414 12.0469C29.45 12.5624 29.11 13.2341 28.8833 13.7496C26.3073 13.3747 23.6876 13.3747 21.1117 13.7496C20.885 13.2185 20.545 12.5624 20.2374 12.0469C20.2212 12.0157 20.1726 12.0001 20.124 12.0001C17.6954 12.4062 15.3801 13.1092 13.2105 14.0777C13.1943 14.0777 13.1781 14.0933 13.1619 14.1089C8.758 20.4666 7.54368 26.6525 8.14275 32.7759C8.14275 32.8071 8.15894 32.8384 8.19132 32.854C11.1057 34.916 13.9067 36.1656 16.6754 36.9935C16.7239 37.0092 16.7725 36.9935 16.7887 36.9623C17.4363 36.1031 18.0192 35.1971 18.5211 34.2442C18.5535 34.1818 18.5211 34.1193 18.4564 34.1037C17.5335 33.76 16.6592 33.3539 15.8011 32.8852C15.7363 32.854 15.7363 32.7603 15.7849 32.7134C15.963 32.5884 16.1411 32.4478 16.3192 32.3229C16.3515 32.2916 16.4001 32.2916 16.4325 32.3073C22.0022 34.7597 28.009 34.7597 33.5139 32.3073C33.5463 32.2916 33.5949 32.2916 33.6273 32.3229C33.8054 32.4635 33.9835 32.5884 34.1616 32.729C34.2263 32.7759 34.2263 32.8696 34.1454 32.9008C33.3034 33.3851 32.4129 33.7756 31.4901 34.1193C31.4253 34.1349 31.4091 34.213 31.4253 34.2599C31.9434 35.2127 32.5263 36.1188 33.1577 36.9779C33.2063 36.9935 33.2549 37.0092 33.3034 36.9935C36.0883 36.1656 38.8893 34.916 41.8037 32.854C41.836 32.8384 41.8522 32.8071 41.8522 32.7759C42.5646 25.6996 40.6703 19.5606 36.8331 14.1089C36.8169 14.0933 36.8007 14.0777 36.7683 14.0777ZM19.3631 29.0425C17.6954 29.0425 16.303 27.5585 16.303 25.7309C16.303 23.9032 17.663 22.4192 19.3631 22.4192C21.0793 22.4192 22.4393 23.9188 22.4231 25.7309C22.4231 27.5585 21.0631 29.0425 19.3631 29.0425ZM30.6481 29.0425C28.9805 29.0425 27.588 27.5585 27.588 25.7309C27.588 23.9032 28.9481 22.4192 30.6481 22.4192C32.3644 22.4192 33.7244 23.9188 33.7082 25.7309C33.7082 27.5585 32.3644 29.0425 30.6481 29.0425Z" fill="white"/>
</svg>
