<svg width="54" height="53" viewBox="0 0 54 53" fill="none" xmlns="http://www.w3.org/2000/svg">
<g clip-path="url(#clip0_46_4)">
<path d="M50.7651 25C50.7651 38.8071 39.5723 50 25.7651 50C11.958 50 0.765137 38.8071 0.765137 25C0.765137 11.1929 11.958 0 25.7651 0C39.5723 0 50.7651 11.1929 50.7651 25Z" fill="url(#paint0_linear_46_4)"/>
<path d="M50.7651 25C50.7651 38.8071 39.5723 50 25.7651 50C11.958 50 0.765137 38.8071 0.765137 25C0.765137 11.1929 11.958 0 25.7651 0C39.5723 0 50.7651 11.1929 50.7651 25Z" fill="#292929"/>
<path d="M21.7651 32.5V49.5C21.7651 49.7761 21.989 50 22.2651 50H29.2651C29.5413 50 29.7651 49.7761 29.7651 49.5V32.5C29.7651 32.2239 29.989 32 30.2651 32H35.2651C35.5413 32 35.7651 31.7761 35.7651 31.5V25.5C35.7651 25.2239 35.5413 25 35.2651 25H30.2651C29.989 25 29.7651 24.7765 29.7651 24.5003V20C29.7651 18 32.2651 17 33.2651 17H36.2651C36.5413 17 36.7651 16.7761 36.7651 16.5V10.5C36.7651 10.2239 36.5414 10 36.2652 10H29.7651C24.9651 10 21.7651 15 21.7651 18V24.5C21.7651 24.7761 21.5413 25 21.2651 25H16.2651C15.989 25 15.7651 25.2239 15.7651 25.5V31.5C15.7651 31.7761 15.989 32 16.2651 32H21.2651C21.5413 32 21.7651 32.2239 21.7651 32.5Z" fill="white"/>
</g>
<defs>
<linearGradient id="paint0_linear_46_4" x1="25.7651" y1="0" x2="25.7651" y2="50" gradientUnits="userSpaceOnUse">
<stop stop-color="white"/>
<stop offset="1" stop-color="white"/>
</linearGradient>
<clipPath id="clip0_46_4">
<rect width="52.765" height="52.765" fill="white" transform="translate(0.765137)"/>
</clipPath>
</defs>
</svg>
