<svg width="2510" height="1021" viewBox="0 0 2510 1021" fill="none" xmlns="http://www.w3.org/2000/svg">
<g opacity="0.5">
<rect y="867.891" width="80" height="73.4775" fill="#FF4655"/>
<rect y="951.471" width="80" height="7.34775" fill="#FF4655"/>
<path d="M16 904.478V886.26L47.9451 922.999H31.9726L16 904.478Z" fill="#111B27"/>
<path d="M58.6484 910.702H43.0051L64 886.26V904.478L58.6484 910.702Z" fill="#111B27"/>
</g>
<rect opacity="0.5" x="1457" y="815.538" width="8" height="7.34775" fill="#FF4655"/>
<rect opacity="0.5" x="1385" y="701.648" width="80" height="7.34775" fill="#FF4655"/>
<rect opacity="0.5" x="1457" y="221.289" width="8" height="7.34775" fill="#FF4655"/>
<rect opacity="0.5" x="1993" y="435.292" width="8" height="7.34775" fill="#FF4655"/>
<rect opacity="0.5" x="1428" y="107.399" width="24" height="7.34775" fill="#FF4655"/>
<rect opacity="0.5" x="731" y="16.4707" width="40" height="36.7387" fill="#FF4655"/>
<rect opacity="0.5" x="2470" y="968.004" width="40" height="36.7387" fill="#FF4655"/>
<rect opacity="0.5" x="289" y="16.4707" width="8" height="7.34775" fill="#FF4655"/>
<rect opacity="0.5" x="321" y="16.4707" width="8" height="7.34775" fill="#FF4655"/>
<rect opacity="0.5" x="2156" y="1013.01" width="8" height="7.34775" fill="#FF4655"/>
<rect opacity="0.5" x="2188" y="1013.01" width="8" height="7.34775" fill="#FF4655"/>
<rect opacity="0.5" x="2003" y="291.093" width="40" height="36.7387" fill="#FF4655"/>
<rect opacity="0.5" x="869" y="899.119" width="40" height="36.7387" fill="#FF4655"/>
<rect opacity="0.5" x="2" y="335.179" width="8" height="7.34775" fill="#FF4655"/>
<rect opacity="0.5" x="2125" y="587.758" width="61" height="7.34775" fill="#FF4655"/>
<rect opacity="0.5" x="2" y="107.399" width="40" height="7.34775" fill="#FF4655"/>
<rect opacity="0.5" x="1838" y="0.856689" width="232" height="7.34775" fill="#FF4655"/>
<rect opacity="0.5" x="2" y="1013.01" width="232" height="7.34775" fill="#FF4655"/>
</svg>
