<svg width="54" height="53" viewBox="0 0 54 53" fill="none" xmlns="http://www.w3.org/2000/svg">
<circle cx="26.2949" cy="25" r="25" fill="#292929"/>
<path fill-rule="evenodd" clip-rule="evenodd" d="M20.1108 10.09C21.7104 10.0164 22.2204 10 26.2949 10C30.3695 10 30.8795 10.0177 32.4776 10.09C34.0758 10.1623 35.1667 10.4173 36.1213 10.7868C37.1208 11.1645 38.0276 11.755 38.7776 12.5186C39.5413 13.2673 40.1304 14.1727 40.5067 15.1736C40.8776 16.1282 41.1313 17.2191 41.2049 18.8145C41.2786 20.4168 41.2949 20.9268 41.2949 25C41.2949 29.0745 41.2772 29.5845 41.2049 31.1841C41.1326 32.7795 40.8776 33.8705 40.5067 34.825C40.1304 35.826 39.5403 36.733 38.7776 37.4827C38.0276 38.2464 37.1208 38.8355 36.1213 39.2118C35.1667 39.5827 34.0758 39.8364 32.4804 39.91C30.8795 39.9836 30.3695 40 26.2949 40C22.2204 40 21.7104 39.9823 20.1108 39.91C18.5154 39.8377 17.4245 39.5827 16.4699 39.2118C15.4689 38.8354 14.5619 38.2453 13.8122 37.4827C13.0491 36.7336 12.4585 35.8271 12.0817 34.8264C11.7122 33.8718 11.4586 32.7809 11.3849 31.1855C11.3113 29.5832 11.2949 29.0732 11.2949 25C11.2949 20.9255 11.3126 20.4155 11.3849 18.8173C11.4572 17.2191 11.7122 16.1282 12.0817 15.1736C12.4591 14.1728 13.0501 13.2663 13.8136 12.5173C14.5622 11.7543 15.4683 11.1638 16.4686 10.7868C17.4231 10.4173 18.514 10.1636 20.1095 10.09H20.1108ZM32.3563 12.79C30.7745 12.7177 30.2999 12.7027 26.2949 12.7027C22.2899 12.7027 21.8154 12.7177 20.2336 12.79C18.7704 12.8568 17.9767 13.1009 17.4476 13.3068C16.7481 13.5795 16.2476 13.9027 15.7226 14.4277C15.225 14.9119 14.842 15.5013 14.6017 16.1527C14.3958 16.6818 14.1517 17.4755 14.0849 18.9386C14.0126 20.5205 13.9976 20.995 13.9976 25C13.9976 29.005 14.0126 29.4795 14.0849 31.0614C14.1517 32.5245 14.3958 33.3182 14.6017 33.8473C14.8417 34.4977 15.2249 35.0882 15.7226 35.5723C16.2067 36.07 16.7972 36.4532 17.4476 36.6932C17.9767 36.8991 18.7704 37.1432 20.2336 37.21C21.8154 37.2823 22.2886 37.2973 26.2949 37.2973C30.3013 37.2973 30.7745 37.2823 32.3563 37.21C33.8195 37.1432 34.6131 36.8991 35.1422 36.6932C35.8417 36.4205 36.3422 36.0973 36.8672 35.5723C37.3649 35.0882 37.7481 34.4977 37.9881 33.8473C38.194 33.3182 38.4381 32.5245 38.5049 31.0614C38.5772 29.4795 38.5922 29.005 38.5922 25C38.5922 20.995 38.5772 20.5205 38.5049 18.9386C38.4381 17.4755 38.194 16.6818 37.9881 16.1527C37.7154 15.4532 37.3922 14.9527 36.8672 14.4277C36.383 13.9301 35.7936 13.5471 35.1422 13.3068C34.6131 13.1009 33.8195 12.8568 32.3563 12.79ZM24.379 29.6241C25.449 30.0695 26.6404 30.1296 27.7498 29.7942C28.8592 29.4587 29.8177 28.7485 30.4617 27.7849C31.1056 26.8212 31.395 25.6639 31.2804 24.5106C31.1659 23.3573 30.6545 22.2795 29.8336 21.4614C29.3102 20.9384 28.6775 20.5379 27.9808 20.2888C27.2842 20.0397 26.541 19.9482 25.8047 20.0208C25.0684 20.0935 24.3574 20.3284 23.7228 20.7088C23.0883 21.0892 22.5459 21.6056 22.1349 22.2207C21.7238 22.8359 21.4543 23.5345 21.3456 24.2663C21.237 24.9981 21.2919 25.7449 21.5066 26.453C21.7212 27.161 22.0901 27.8126 22.5868 28.361C23.0835 28.9093 23.6956 29.3407 24.379 29.6241ZM20.8431 19.5482C21.559 18.8322 22.409 18.2643 23.3444 17.8769C24.2798 17.4894 25.2824 17.29 26.2949 17.29C27.3074 17.29 28.31 17.4894 29.2454 17.8769C30.1808 18.2643 31.0308 18.8322 31.7467 19.5482C32.4627 20.2641 33.0306 21.1141 33.4181 22.0495C33.8055 22.9849 34.005 23.9875 34.005 25C34.005 26.0125 33.8055 27.0151 33.4181 27.9505C33.0306 28.8859 32.4627 29.7359 31.7467 30.4518C30.3008 31.8977 28.3398 32.71 26.2949 32.71C24.2501 32.71 22.289 31.8977 20.8431 30.4518C19.3972 29.0059 18.5849 27.0448 18.5849 25C18.5849 22.9552 19.3972 20.9941 20.8431 19.5482ZM35.7149 18.4382C35.8923 18.2708 36.0344 18.0696 36.1326 17.8463C36.2308 17.6231 36.2833 17.3824 36.2869 17.1385C36.2904 16.8947 36.245 16.6526 36.1533 16.4266C36.0616 16.2006 35.9255 15.9952 35.753 15.8228C35.5806 15.6503 35.3753 15.5142 35.1493 15.4225C34.9233 15.3308 34.6812 15.2854 34.4373 15.289C34.1934 15.2925 33.9527 15.345 33.7295 15.4432C33.5063 15.5415 33.305 15.6835 33.1376 15.8609C32.8122 16.2059 32.634 16.6643 32.6409 17.1385C32.6478 17.6128 32.8393 18.0657 33.1747 18.4011C33.5101 18.7366 33.963 18.928 34.4373 18.935C34.9116 18.9419 35.3699 18.7637 35.7149 18.4382Z" fill="white"/>
</svg>
