<svg width="844" height="124" viewBox="0 0 844 124" fill="none" xmlns="http://www.w3.org/2000/svg">
<path d="M335.561 0H339.795C362.919 0.816318 384.712 15.8044 393.778 37.2027C402.125 56.1386 400.155 79.2364 388.546 96.379C378.735 111.381 362.12 121.631 344.348 123.572C326.895 125.7 308.71 119.811 295.783 107.834C282.923 96.2452 275.375 78.9687 275.628 61.5985C275.588 43.6262 283.935 25.9214 297.7 14.493C308.204 5.50011 321.809 0.508526 335.561 0ZM327.8 22.2547C311.292 26.2426 298.765 41.8999 297.78 58.8418C296.342 74.8871 305.195 91.3205 319.533 98.6005C332.952 105.773 350.418 103.793 362.014 93.9568C376.751 82.0868 381.144 59.6046 372.278 42.9035C364.477 26.8314 345.093 17.5308 327.8 22.2547Z" fill="white"/>
<path d="M0.973633 3.64007C7.5501 2.32861 14.3263 2.98434 20.9826 3.07802C22.913 2.77022 22.9928 5.33962 23.0328 6.62431C23.0461 33.0007 23.0195 59.3906 23.0328 85.767C44.0668 59.4307 65.0077 33.0275 85.9619 6.65108C87.3996 4.92477 89.077 2.91743 91.5532 3.03787C99.7006 2.78361 107.875 2.91743 116.035 3.10478C114.251 7.33357 111.03 10.6256 108.247 14.1719C80.8498 48.6446 53.4256 83.1039 26.0414 117.59C24.6835 119.102 23.2058 121.043 20.9294 120.936C14.2863 121.31 7.61667 121.096 0.973633 120.788V3.64007Z" fill="white"/>
<path d="M145.669 11.6827C148.518 8.01598 151.62 3.53292 156.679 3.13146C162.324 2.81028 168.008 2.75675 173.653 3.13146C175.45 4.09498 174.771 6.3432 174.971 7.97583C174.904 41.0033 174.957 74.0307 174.944 107.071C174.891 111.688 175.263 116.345 174.465 120.922C168.115 121.096 161.764 121.176 155.414 121.002C153.085 121.203 151.354 119.45 150.036 117.791C139.958 105.118 129.947 92.4179 119.789 79.8118C109.792 92.3644 99.7938 104.93 89.8359 117.51C88.518 119.022 87.0935 120.976 84.8437 120.935C76.6697 121.257 68.4824 121.016 60.2951 121.002C60.0687 118.861 61.7994 117.362 62.9043 115.77C90.5415 81.1099 118.099 46.3963 145.669 11.6827ZM132.05 61.9733C138.973 70.7119 145.896 79.4371 152.858 88.149C152.845 70.7386 152.911 53.3417 152.818 35.9314C145.829 44.5629 139 53.3149 132.05 61.9733Z" fill="white"/>
<path d="M201.409 8.12292C201.689 6.43676 200.704 3.26516 203.287 3.07781C209.996 3.18487 216.999 2.02061 223.535 3.81383C223.469 35.8777 223.509 67.9416 223.509 100.006C240.496 100.139 257.483 99.7379 274.443 100.233C272.246 105.425 267.84 109.186 264.671 113.749C262.049 116.693 259.905 121.497 255.259 121.042C237.407 120.909 219.541 121.444 201.716 120.761C201.05 83.2242 201.649 45.6602 201.409 8.12292Z" fill="white"/>
<path d="M418.673 9.4612C418.872 7.14606 417.767 2.63624 421.468 2.98418C450.836 2.87712 480.217 2.98418 509.585 2.93065C511.076 2.82359 513.832 3.13139 513.379 5.33946C513.339 14.1316 513.912 23.0174 513.06 31.756C504.153 44.429 493.823 56.1251 484.371 68.41C496.951 84.2145 509.465 100.072 522.112 115.823C523.27 117.362 524.682 118.915 524.761 120.962C516.587 121.069 508.413 121.203 500.239 120.962C497.231 120.935 495.66 117.951 493.903 115.971C481.522 99.952 468.382 84.4955 456.374 68.1959C467.943 53.3818 479.778 38.7817 491.386 24.0077C474.519 23.9943 457.652 23.9809 440.785 24.0211C440.599 56.259 441.131 88.5102 440.519 120.735C433.356 121.27 426.141 121.283 418.979 120.735C418.326 83.6525 418.939 46.5568 418.673 9.4612Z" fill="white"/>
<path d="M543.12 6.58402C542.947 5.11197 543.426 2.64964 545.45 3.02434C551.826 3.03772 558.297 2.50243 564.62 3.33213C567.802 4.95139 569.506 8.40401 571.809 11.0002C599.406 45.687 626.95 80.4139 654.587 115.061C655.892 116.867 657.822 118.553 657.769 120.989C649.661 121.042 641.527 121.216 633.42 120.962C631.13 121.083 629.613 119.156 628.281 117.59C618.31 104.97 608.272 92.3911 598.261 79.7984C588.144 92.3911 578.119 105.091 568.068 117.75C566.737 119.383 565.046 121.176 562.743 121.002C556.939 121.136 551.108 121.163 545.303 120.962C542.747 121.324 543.227 118.031 543.107 116.493C543.147 79.8519 543.107 43.2113 543.12 6.58402ZM565.179 35.8778C565.139 53.3015 565.166 70.7252 565.166 88.1355C572.155 79.4504 579.078 70.7118 586.013 61.9732C579.011 53.3149 572.182 44.5227 565.179 35.8778Z" fill="white"/>
<path d="M641.181 3.8808C644.336 1.94037 648.476 3.34551 652.017 2.93066C656.357 3.39904 662.042 1.40508 665.157 5.47329C686.511 32.1977 707.744 59.0291 729.071 85.7936C729.218 58.5473 728.765 31.2743 729.284 4.05477C729.644 3.81389 730.336 3.33213 730.695 3.09125C736.793 2.81022 742.943 2.83699 749.054 3.06448C751.809 2.98419 750.917 6.38328 751.157 8.09621C750.931 45.6468 751.503 83.2108 750.877 120.735C744.554 121.31 738.204 121.069 731.867 121.029C729.471 121.23 727.62 119.624 726.289 117.844C705.188 91.3071 684.141 64.7433 662.987 38.2464C662.827 54.6665 663.267 71.0999 662.761 87.5065C660.964 87.0114 659.646 85.7936 658.594 84.3349C653.349 77.5368 647.877 70.9125 642.605 64.1277C640.342 61.5583 640.981 57.9719 640.861 54.8271C641.128 37.845 640.475 20.8361 641.181 3.8808Z" fill="white"/>
<path d="M766.68 4.10835C767.851 2.56939 770.035 3.11806 771.712 2.90394C793.465 2.95747 815.218 2.97086 836.971 2.90394C840.299 3.21174 844.346 2.06086 847.142 4.41614C852.107 9.79581 856.394 15.8044 860.974 21.5187V23.9676C847.834 24.0479 834.694 23.9542 821.555 24.0212C821.422 56.2992 821.954 88.5772 821.395 120.842C814.179 121.15 806.937 121.297 799.735 120.748C799.349 88.5103 799.629 56.259 799.469 24.0078C788.939 23.807 778.382 24.3423 767.878 23.7937C767.572 23.4859 766.973 22.8837 766.68 22.5759C766.227 16.4468 766.28 10.2374 766.68 4.10835Z" fill="white"/>
</svg>
