<svg width="2368" height="1213" viewBox="0 0 2368 1213" fill="none" xmlns="http://www.w3.org/2000/svg">
<path d="M317 1015.36H333.605L338 1021.62L333.605 1027.88H317V1015.36Z" fill="#FF4655" fill-opacity="0.47"/>
<rect x="1272" y="234.339" width="16" height="15.4085" fill="#FF4655" fill-opacity="0.47"/>
<rect x="1272" y="234.339" width="16" height="15.4085" fill="#FF4655" fill-opacity="0.5"/>
<rect x="1280" y="262" width="16" height="15.4085" fill="#FF4655" fill-opacity="0.5"/>
<path d="M5.214 841L0.93 831.2H2.904L6.726 840.062H5.592L9.456 831.2H11.276L7.006 841H5.214ZM10.6097 841L15.0197 831.2H16.8117L21.2357 841H19.3317L15.5377 832.166H16.2657L12.4857 841H10.6097ZM12.6397 838.732L13.1297 837.304H18.4217L18.9117 838.732H12.6397ZM22.482 841V831.2H24.302V839.46H29.426V841H22.482ZM35.2771 841.14C34.5118 841.14 33.8071 841.014 33.1631 840.762C32.5191 840.51 31.9591 840.16 31.4831 839.712C31.0071 839.255 30.6385 838.723 30.3771 838.116C30.1158 837.5 29.9851 836.828 29.9851 836.1C29.9851 835.372 30.1158 834.705 30.3771 834.098C30.6385 833.482 31.0071 832.95 31.4831 832.502C31.9591 832.045 32.5191 831.69 33.1631 831.438C33.8071 831.186 34.5071 831.06 35.2631 831.06C36.0285 831.06 36.7285 831.186 37.3631 831.438C38.0071 831.69 38.5671 832.045 39.0431 832.502C39.5191 832.95 39.8878 833.482 40.1491 834.098C40.4105 834.705 40.5411 835.372 40.5411 836.1C40.5411 836.828 40.4105 837.5 40.1491 838.116C39.8878 838.732 39.5191 839.264 39.0431 839.712C38.5671 840.16 38.0071 840.51 37.3631 840.762C36.7285 841.014 36.0331 841.14 35.2771 841.14ZM35.2631 839.544C35.7578 839.544 36.2151 839.46 36.6351 839.292C37.0551 839.124 37.4191 838.886 37.7271 838.578C38.0351 838.261 38.2731 837.897 38.4411 837.486C38.6185 837.066 38.7071 836.604 38.7071 836.1C38.7071 835.596 38.6185 835.139 38.4411 834.728C38.2731 834.308 38.0351 833.944 37.7271 833.636C37.4191 833.319 37.0551 833.076 36.6351 832.908C36.2151 832.74 35.7578 832.656 35.2631 832.656C34.7685 832.656 34.3111 832.74 33.8911 832.908C33.4805 833.076 33.1165 833.319 32.7991 833.636C32.4911 833.944 32.2485 834.308 32.0711 834.728C31.9031 835.139 31.8191 835.596 31.8191 836.1C31.8191 836.595 31.9031 837.052 32.0711 837.472C32.2485 837.892 32.4911 838.261 32.7991 838.578C33.1071 838.886 33.4711 839.124 33.8911 839.292C34.3111 839.46 34.7685 839.544 35.2631 839.544ZM42.4703 841V831.2H46.5023C47.3703 831.2 48.1123 831.34 48.7283 831.62C49.3536 831.9 49.8343 832.301 50.1703 832.824C50.5063 833.347 50.6743 833.967 50.6743 834.686C50.6743 835.405 50.5063 836.025 50.1703 836.548C49.8343 837.061 49.3536 837.458 48.7283 837.738C48.1123 838.009 47.3703 838.144 46.5023 838.144H43.4783L44.2903 837.318V841H42.4703ZM48.8823 841L46.4043 837.444H48.3503L50.8423 841H48.8823ZM44.2903 837.514L43.4783 836.646H46.4183C47.221 836.646 47.823 836.473 48.2243 836.128C48.635 835.783 48.8403 835.302 48.8403 834.686C48.8403 834.061 48.635 833.58 48.2243 833.244C47.823 832.908 47.221 832.74 46.4183 832.74H43.4783L44.2903 831.844V837.514ZM51.3245 841L55.7345 831.2H57.5265L61.9505 841H60.0465L56.2525 832.166H56.9805L53.2005 841H51.3245ZM53.3545 838.732L53.8445 837.304H59.1365L59.6265 838.732H53.3545ZM63.1969 841V831.2H64.6949L70.8409 838.746H70.0989V831.2H71.9049V841H70.4069L64.2609 833.454H65.0029V841H63.1969ZM76.5188 841V832.74H73.2708V831.2H81.5868V832.74H78.3388V841H76.5188Z" fill="#FF4655" fill-opacity="0.47"/>
<rect x="481.166" y="79.291" width="12.3333" height="11.8774" fill="#FF4655" fill-opacity="0.47"/>
<rect x="456.5" y="103.046" width="12.3333" height="11.8774" fill="#FF4655" fill-opacity="0.47"/>
<rect x="617" y="458.725" width="56" height="6.74122" fill="#FF4655" fill-opacity="0.47"/>
<rect x="2290" y="0.000244141" width="56" height="6.74122" fill="#FF4655" fill-opacity="0.47"/>
<rect x="1502" y="211" width="56" height="6.74122" fill="#FF4655" fill-opacity="0.47"/>
<rect opacity="0.5" x="1425" y="1205.07" width="8" height="7.70425" fill="black"/>
<rect x="2342" y="199" width="8" height="7.70425" fill="#FF4655" fill-opacity="0.47"/>
<rect x="2360" y="199" width="8" height="7.70425" fill="#FF4655" fill-opacity="0.47"/>
<rect x="2360" y="214" width="8" height="7.70425" fill="#FF4655" fill-opacity="0.47"/>
<rect x="2342" y="214" width="8" height="7.70425" fill="#FF4655" fill-opacity="0.47"/>
</svg>
