<svg width="1608" height="742" viewBox="0 0 1608 742" fill="none" xmlns="http://www.w3.org/2000/svg">
<path d="M60.8 592H56.8V596H60.8V592ZM60.8 172V168H56.8V172H60.8ZM158 172H162V168H158V172ZM158 512.8H154V516.8H158V512.8ZM368.6 512.8H372.6V508.8H368.6V512.8ZM368.6 592V596H372.6V592H368.6ZM64.8 592V172H56.8V592H64.8ZM60.8 176H158V168H60.8V176ZM154 172V512.8H162V172H154ZM158 516.8H368.6V508.8H158V516.8ZM364.6 512.8V592H372.6V512.8H364.6ZM368.6 588H60.8V596H368.6V588ZM527.478 583L526.039 586.732L526.047 586.735L526.056 586.739L527.478 583ZM454.278 537.4L451.507 540.284L451.521 540.298L451.535 540.311L454.278 537.4ZM406.278 468.4L402.596 469.962L402.606 469.986L402.616 470.009L406.278 468.4ZM406.278 295.6L402.616 293.991L402.606 294.014L402.596 294.038L406.278 295.6ZM528.078 181L526.639 177.268L528.078 181ZM710.478 181L709.021 184.725L709.03 184.728L709.039 184.732L710.478 181ZM783.078 226.6L780.307 229.484L780.321 229.498L780.335 229.511L783.078 226.6ZM831.678 295.6L828.016 297.209L828.021 297.219L828.025 297.23L831.678 295.6ZM831.678 469L835.34 470.609L835.345 470.599L835.349 470.589L831.678 469ZM783.078 538L785.82 540.913L785.821 540.911L783.078 538ZM710.478 583L709.039 579.268L709.03 579.271L709.021 579.275L710.478 583ZM670.878 506.8L669.393 503.086L669.376 503.093L669.36 503.099L670.878 506.8ZM712.878 479.2L710.05 476.372V476.372L712.878 479.2ZM740.478 436.6L736.783 435.068L736.767 435.107L736.752 435.146L740.478 436.6ZM740.478 327.4L736.752 328.854L736.767 328.893L736.783 328.932L740.478 327.4ZM712.878 284.8L710.002 287.58L710.026 287.604L710.05 287.628L712.878 284.8ZM671.478 257.2L669.993 260.914L671.478 257.2ZM567.078 257.2L565.593 253.486L565.576 253.493L565.56 253.499L567.078 257.2ZM525.678 284.8L528.507 287.628L525.678 284.8ZM497.478 327.4L493.783 325.868L493.767 325.907L493.752 325.946L497.478 327.4ZM497.478 436.6L493.74 438.024L493.761 438.078L493.783 438.132L497.478 436.6ZM525.078 479.2L522.202 481.98L522.226 482.004L522.25 482.028L525.078 479.2ZM567.078 506.8L565.593 510.514L567.078 506.8ZM619.878 595.2C587.119 595.2 556.805 589.873 528.9 579.261L526.056 586.739C554.951 597.727 586.237 603.2 619.878 603.2V595.2ZM528.918 579.268C501.377 568.645 477.425 553.716 457.021 534.489L451.535 540.311C472.731 560.284 497.58 575.755 526.039 586.732L528.918 579.268ZM457.049 534.516C437.034 515.285 421.334 492.721 409.94 466.791L402.616 470.009C414.422 496.879 430.722 520.315 451.507 540.284L457.049 534.516ZM409.96 466.838C398.988 440.974 393.478 412.711 393.478 382H385.478C385.478 413.689 391.168 443.026 402.596 469.962L409.96 466.838ZM393.478 382C393.478 351.289 398.988 323.026 409.96 297.162L402.596 294.038C391.168 320.974 385.478 350.311 385.478 382H393.478ZM409.94 297.209C421.326 271.296 437.215 248.74 457.621 229.511L452.135 223.689C430.941 243.66 414.43 267.104 402.616 293.991L409.94 297.209ZM457.621 229.511C478.025 210.284 501.977 195.355 529.518 184.732L526.639 177.268C498.18 188.245 473.331 203.716 452.135 223.689L457.621 229.511ZM529.518 184.732C557.017 174.125 586.924 168.8 619.278 168.8V160.8C586.032 160.8 555.139 166.275 526.639 177.268L529.518 184.732ZM619.278 168.8C652.039 168.8 681.938 174.127 709.021 184.725L711.936 177.275C683.819 166.273 652.917 160.8 619.278 160.8V168.8ZM709.039 184.732C736.573 195.353 760.313 210.275 780.307 229.484L785.849 223.716C765.043 203.725 740.383 188.247 711.918 177.268L709.039 184.732ZM780.335 229.511C800.741 248.74 816.63 271.296 828.016 297.209L835.34 293.991C823.526 267.104 807.015 243.66 785.821 223.689L780.335 229.511ZM828.025 297.23C839.372 322.663 845.078 350.9 845.078 382H853.078C853.078 349.9 847.184 320.537 835.331 293.97L828.025 297.23ZM845.078 382C845.078 412.691 839.376 441.146 828.007 467.411L835.349 470.589C847.181 443.254 853.078 413.709 853.078 382H845.078ZM828.016 467.391C816.63 493.304 800.741 515.86 780.335 535.089L785.821 540.911C807.015 520.94 823.526 497.496 835.34 470.609L828.016 467.391ZM780.337 535.087C760.34 553.908 736.591 568.641 709.039 579.268L711.918 586.732C740.366 575.759 765.016 560.492 785.82 540.913L780.337 535.087ZM709.021 579.275C681.932 589.875 652.233 595.2 619.878 595.2V603.2C653.124 603.2 683.824 597.725 711.936 586.725L709.021 579.275ZM619.278 520.4C638.539 520.4 656.262 517.12 672.396 510.501L669.36 503.099C654.294 509.28 637.617 512.4 619.278 512.4V520.4ZM672.364 510.514C688.859 503.916 703.318 494.418 715.707 482.028L710.05 476.372C698.439 487.982 684.898 496.884 669.393 503.086L672.364 510.514ZM715.707 482.028C728.112 469.623 737.611 454.95 744.204 438.054L736.752 435.146C730.545 451.05 721.644 464.777 710.05 476.372L715.707 482.028ZM744.173 438.132C751.198 421.189 754.678 402.459 754.678 382H746.678C746.678 401.541 743.358 419.211 736.783 435.068L744.173 438.132ZM754.678 382C754.678 361.541 751.198 342.811 744.173 325.868L736.783 328.932C743.358 344.789 746.678 362.459 746.678 382H754.678ZM744.204 325.946C737.611 309.05 728.112 294.377 715.707 281.972L710.05 287.628C721.644 299.223 730.545 312.95 736.752 328.854L744.204 325.946ZM715.754 282.02C703.749 269.601 689.47 260.089 672.964 253.486L669.993 260.914C685.486 267.111 698.807 275.999 710.002 287.58L715.754 282.02ZM672.964 253.486C656.45 246.881 638.541 243.6 619.278 243.6V251.6C637.616 251.6 654.506 254.719 669.993 260.914L672.964 253.486ZM619.278 243.6C600.016 243.6 582.106 246.881 565.593 253.486L568.564 260.914C584.05 254.719 600.941 251.6 619.278 251.6V243.6ZM565.56 253.499C549.466 260.102 535.222 269.599 522.85 281.972L528.507 287.628C540.134 276.001 553.49 267.098 568.596 260.901L565.56 253.499ZM522.85 281.972C510.462 294.36 500.775 309.006 493.783 325.868L501.173 328.932C507.782 312.994 516.895 299.24 528.507 287.628L522.85 281.972ZM493.752 325.946C487.148 342.868 483.878 361.57 483.878 382H491.878C491.878 362.43 495.008 344.732 501.204 328.854L493.752 325.946ZM483.878 382C483.878 402.043 487.152 420.73 493.74 438.024L501.216 435.176C495.004 418.87 491.878 401.157 491.878 382H483.878ZM493.783 438.132C500.763 454.966 510.232 469.597 522.202 481.98L527.954 476.42C516.725 464.803 507.793 451.034 501.173 435.068L493.783 438.132ZM522.25 482.028C534.639 494.418 549.098 503.916 565.593 510.514L568.564 503.086C553.059 496.884 539.518 487.982 527.907 476.372L522.25 482.028ZM565.593 510.514C582.106 517.119 600.016 520.4 619.278 520.4V512.4C600.941 512.4 584.05 509.281 568.564 503.086L565.593 510.514ZM968.928 549.4L971.74 546.555L968.928 549.4ZM918.528 172V168H914.528V172H918.528ZM1015.73 172H1019.73V168H1015.73V172ZM1040.33 490L1037.4 492.727L1040.33 490ZM1178.33 490L1181.25 492.727L1178.33 490ZM1202.93 172V168H1198.93V172H1202.93ZM1298.93 172H1302.93V168H1298.93V172ZM1248.53 549.4L1251.34 552.245L1248.53 549.4ZM1108.73 595.2C1049.89 595.2 1004.41 578.834 971.74 546.555L966.117 552.245C1000.65 586.366 1048.37 603.2 1108.73 603.2V595.2ZM971.74 546.555C939.112 514.315 922.528 468.07 922.528 407.2H914.528C914.528 469.53 931.545 518.085 966.117 552.245L971.74 546.555ZM922.528 407.2V172H914.528V407.2H922.528ZM918.528 176H1015.73V168H918.528V176ZM1011.73 172V403.6H1019.73V172H1011.73ZM1011.73 403.6C1011.73 443.984 1019.98 474.028 1037.4 492.727L1043.25 487.273C1027.88 470.772 1019.73 443.216 1019.73 403.6H1011.73ZM1037.4 492.727C1054.73 511.32 1078.89 520.4 1109.33 520.4V512.4C1080.56 512.4 1058.73 503.88 1043.25 487.273L1037.4 492.727ZM1109.33 520.4C1139.76 520.4 1163.93 511.32 1181.25 492.727L1175.4 487.273C1159.93 503.88 1138.09 512.4 1109.33 512.4V520.4ZM1181.25 492.727C1198.68 474.028 1206.93 443.984 1206.93 403.6H1198.93C1198.93 443.216 1190.78 470.772 1175.4 487.273L1181.25 492.727ZM1206.93 403.6V172H1198.93V403.6H1206.93ZM1202.93 176H1298.93V168H1202.93V176ZM1294.93 172V407.2H1302.93V172H1294.93ZM1294.93 407.2C1294.93 468.07 1278.34 514.315 1245.72 546.555L1251.34 552.245C1285.91 518.085 1302.93 469.53 1302.93 407.2H1294.93ZM1245.72 546.555C1213.05 578.834 1167.57 595.2 1108.73 595.2V603.2C1169.09 603.2 1216.81 586.366 1251.34 552.245L1245.72 546.555ZM1394.98 592H1390.98V596H1394.98V592ZM1394.98 172V168H1390.98V172H1394.98ZM1706.38 198.4L1704.57 201.969L1704.59 201.978L1704.61 201.986L1706.38 198.4ZM1787.98 493L1791.37 495.128L1791.37 495.118L1791.38 495.108L1787.98 493ZM1706.38 566.2L1708.15 569.786L1708.17 569.778L1708.18 569.769L1706.38 566.2ZM1492.18 512.2H1488.18V516.2H1492.18V512.2ZM1653.58 496.6L1655.4 500.164L1655.41 500.157L1655.42 500.15L1653.58 496.6ZM1701.58 451L1698.14 448.963L1698.12 448.989L1698.11 449.015L1701.58 451ZM1701.58 313L1698.11 314.985L1698.13 315.027L1698.16 315.068L1701.58 313ZM1653.58 268L1651.71 271.535L1651.75 271.557L1651.79 271.578L1653.58 268ZM1492.18 251.8V247.8H1488.18V251.8H1492.18ZM1398.98 592V172H1390.98V592H1398.98ZM1394.98 176H1585.78V168H1394.98V176ZM1585.78 176C1630.86 176 1670.42 184.697 1704.57 201.969L1708.18 194.831C1672.74 176.903 1631.9 168 1585.78 168V176ZM1704.61 201.986C1738.78 218.877 1765.41 242.588 1784.59 273.128L1791.37 268.872C1771.35 237.012 1743.58 212.323 1708.15 194.814L1704.61 201.986ZM1784.59 273.128C1803.73 303.593 1813.38 339.829 1813.38 382H1821.38C1821.38 338.571 1811.43 300.807 1791.37 268.872L1784.59 273.128ZM1813.38 382C1813.38 423.762 1803.73 460.01 1784.58 490.892L1791.38 495.108C1811.42 462.79 1821.38 425.038 1821.38 382H1813.38ZM1784.59 490.872C1765.4 521.42 1738.77 545.339 1704.57 562.631L1708.18 569.769C1743.59 551.861 1771.36 526.979 1791.37 495.128L1784.59 490.872ZM1704.61 562.614C1670.45 579.498 1630.87 588 1585.78 588V596C1631.89 596 1672.71 587.302 1708.15 569.786L1704.61 562.614ZM1585.78 588H1394.98V596H1585.78V588ZM1492.18 516.2H1580.98V508.2H1492.18V516.2ZM1580.98 516.2C1609.47 516.2 1634.32 510.907 1655.4 500.164L1651.76 493.036C1632.04 503.093 1608.49 508.2 1580.98 508.2V516.2ZM1655.42 500.15C1676.88 489.01 1693.46 473.279 1705.05 452.985L1698.11 449.015C1687.3 467.921 1671.88 482.59 1651.74 493.05L1655.42 500.15ZM1705.02 453.037C1717.04 432.728 1722.98 409.001 1722.98 382H1714.98C1714.98 407.799 1709.32 430.072 1698.14 448.963L1705.02 453.037ZM1722.98 382C1722.98 354.614 1717.05 330.867 1705 310.932L1698.16 315.068C1709.31 333.532 1714.98 355.786 1714.98 382H1722.98ZM1705.05 311.015C1693.45 290.708 1676.85 275.164 1655.37 264.422L1651.79 271.578C1671.91 281.636 1687.31 296.092 1698.11 314.985L1705.05 311.015ZM1655.45 264.465C1634.36 253.301 1609.49 247.8 1580.98 247.8V255.8C1608.46 255.8 1632 261.099 1651.71 271.535L1655.45 264.465ZM1580.98 247.8H1492.18V255.8H1580.98V247.8ZM1488.18 251.8V512.2H1496.18V251.8H1488.18Z" fill="white" fill-opacity="0.3"/>
<path d="M49.8 581H45.8V585H49.8V581ZM49.8 161V157H45.8V161H49.8ZM147 161H151V157H147V161ZM147 501.8H143V505.8H147V501.8ZM357.6 501.8H361.6V497.8H357.6V501.8ZM357.6 581V585H361.6V581H357.6ZM53.8 581V161H45.8V581H53.8ZM49.8 165H147V157H49.8V165ZM143 161V501.8H151V161H143ZM147 505.8H357.6V497.8H147V505.8ZM353.6 501.8V581H361.6V501.8H353.6ZM357.6 577H49.8V585H357.6V577ZM516.478 572L515.039 575.732L515.047 575.735L515.056 575.739L516.478 572ZM443.278 526.4L440.507 529.284L440.521 529.298L440.535 529.311L443.278 526.4ZM395.278 457.4L391.596 458.962L391.606 458.986L391.616 459.009L395.278 457.4ZM395.278 284.6L391.616 282.991L391.606 283.014L391.596 283.038L395.278 284.6ZM517.078 170L515.639 166.268L517.078 170ZM699.478 170L698.021 173.725L698.03 173.728L698.039 173.732L699.478 170ZM772.078 215.6L769.307 218.484L769.321 218.498L769.335 218.511L772.078 215.6ZM820.678 284.6L817.016 286.209L817.021 286.219L817.025 286.23L820.678 284.6ZM820.678 458L824.34 459.609L824.345 459.599L824.349 459.589L820.678 458ZM772.078 527L774.82 529.913L774.821 529.911L772.078 527ZM699.478 572L698.039 568.268L698.03 568.271L698.021 568.275L699.478 572ZM659.878 495.8L658.393 492.086L658.376 492.093L658.36 492.099L659.878 495.8ZM701.878 468.2L699.05 465.372V465.372L701.878 468.2ZM729.478 425.6L725.783 424.068L725.767 424.107L725.752 424.146L729.478 425.6ZM729.478 316.4L725.752 317.854L725.767 317.893L725.783 317.932L729.478 316.4ZM701.878 273.8L699.002 276.58L699.026 276.604L699.05 276.628L701.878 273.8ZM660.478 246.2L658.993 249.914L660.478 246.2ZM556.078 246.2L554.593 242.486L554.576 242.493L554.56 242.499L556.078 246.2ZM514.678 273.8L517.507 276.628L514.678 273.8ZM486.478 316.4L482.783 314.868L482.767 314.907L482.752 314.946L486.478 316.4ZM486.478 425.6L482.74 427.024L482.761 427.078L482.783 427.132L486.478 425.6ZM514.078 468.2L511.202 470.98L511.226 471.004L511.25 471.028L514.078 468.2ZM556.078 495.8L554.593 499.514L556.078 495.8ZM608.878 584.2C576.119 584.2 545.805 578.873 517.9 568.261L515.056 575.739C543.951 586.727 575.237 592.2 608.878 592.2V584.2ZM517.918 568.268C490.377 557.645 466.425 542.716 446.021 523.489L440.535 529.311C461.731 549.284 486.58 564.755 515.039 575.732L517.918 568.268ZM446.049 523.516C426.034 504.285 410.334 481.721 398.94 455.791L391.616 459.009C403.422 485.879 419.722 509.315 440.507 529.284L446.049 523.516ZM398.96 455.838C387.988 429.974 382.478 401.711 382.478 371H374.478C374.478 402.689 380.168 432.026 391.596 458.962L398.96 455.838ZM382.478 371C382.478 340.289 387.988 312.026 398.96 286.162L391.596 283.038C380.168 309.974 374.478 339.311 374.478 371H382.478ZM398.94 286.209C410.326 260.296 426.215 237.74 446.621 218.511L441.135 212.689C419.941 232.66 403.43 256.104 391.616 282.991L398.94 286.209ZM446.621 218.511C467.025 199.284 490.977 184.355 518.518 173.732L515.639 166.268C487.18 177.245 462.331 192.716 441.135 212.689L446.621 218.511ZM518.518 173.732C546.017 163.125 575.924 157.8 608.278 157.8V149.8C575.032 149.8 544.139 155.275 515.639 166.268L518.518 173.732ZM608.278 157.8C641.039 157.8 670.938 163.127 698.021 173.725L700.936 166.275C672.819 155.273 641.917 149.8 608.278 149.8V157.8ZM698.039 173.732C725.573 184.353 749.313 199.275 769.307 218.484L774.849 212.716C754.043 192.725 729.383 177.247 700.918 166.268L698.039 173.732ZM769.335 218.511C789.741 237.74 805.63 260.296 817.016 286.209L824.34 282.991C812.526 256.104 796.015 232.66 774.821 212.689L769.335 218.511ZM817.025 286.23C828.372 311.663 834.078 339.9 834.078 371H842.078C842.078 338.9 836.184 309.537 824.331 282.97L817.025 286.23ZM834.078 371C834.078 401.691 828.376 430.146 817.007 456.411L824.349 459.589C836.181 432.254 842.078 402.709 842.078 371H834.078ZM817.016 456.391C805.63 482.304 789.741 504.86 769.335 524.089L774.821 529.911C796.015 509.94 812.526 486.496 824.34 459.609L817.016 456.391ZM769.337 524.087C749.34 542.908 725.591 557.641 698.039 568.268L700.918 575.732C729.366 564.759 754.016 549.492 774.82 529.913L769.337 524.087ZM698.021 568.275C670.932 578.875 641.233 584.2 608.878 584.2V592.2C642.124 592.2 672.824 586.725 700.936 575.725L698.021 568.275ZM608.278 509.4C627.539 509.4 645.262 506.12 661.396 499.501L658.36 492.099C643.294 498.28 626.617 501.4 608.278 501.4V509.4ZM661.364 499.514C677.859 492.916 692.318 483.418 704.707 471.028L699.05 465.372C687.439 476.982 673.898 485.884 658.393 492.086L661.364 499.514ZM704.707 471.028C717.112 458.623 726.611 443.95 733.204 427.054L725.752 424.146C719.545 440.05 710.644 453.777 699.05 465.372L704.707 471.028ZM733.173 427.132C740.198 410.189 743.678 391.459 743.678 371H735.678C735.678 390.541 732.358 408.211 725.783 424.068L733.173 427.132ZM743.678 371C743.678 350.541 740.198 331.811 733.173 314.868L725.783 317.932C732.358 333.789 735.678 351.459 735.678 371H743.678ZM733.204 314.946C726.611 298.05 717.112 283.377 704.707 270.972L699.05 276.628C710.644 288.223 719.545 301.95 725.752 317.854L733.204 314.946ZM704.754 271.02C692.749 258.601 678.47 249.089 661.964 242.486L658.993 249.914C674.486 256.111 687.807 264.999 699.002 276.58L704.754 271.02ZM661.964 242.486C645.45 235.881 627.541 232.6 608.278 232.6V240.6C626.616 240.6 643.506 243.719 658.993 249.914L661.964 242.486ZM608.278 232.6C589.016 232.6 571.106 235.881 554.593 242.486L557.564 249.914C573.05 243.719 589.941 240.6 608.278 240.6V232.6ZM554.56 242.499C538.466 249.102 524.222 258.599 511.85 270.972L517.507 276.628C529.134 265.001 542.49 256.098 557.596 249.901L554.56 242.499ZM511.85 270.972C499.462 283.36 489.775 298.006 482.783 314.868L490.173 317.932C496.782 301.994 505.895 288.24 517.507 276.628L511.85 270.972ZM482.752 314.946C476.148 331.868 472.878 350.57 472.878 371H480.878C480.878 351.43 484.008 333.732 490.204 317.854L482.752 314.946ZM472.878 371C472.878 391.043 476.152 409.73 482.74 427.024L490.216 424.176C484.004 407.87 480.878 390.157 480.878 371H472.878ZM482.783 427.132C489.763 443.966 499.232 458.597 511.202 470.98L516.954 465.42C505.725 453.803 496.793 440.034 490.173 424.068L482.783 427.132ZM511.25 471.028C523.639 483.418 538.098 492.916 554.593 499.514L557.564 492.086C542.059 485.884 528.518 476.982 516.907 465.372L511.25 471.028ZM554.593 499.514C571.106 506.119 589.016 509.4 608.278 509.4V501.4C589.941 501.4 573.05 498.281 557.564 492.086L554.593 499.514ZM957.928 538.4L960.74 535.555L957.928 538.4ZM907.528 161V157H903.528V161H907.528ZM1004.73 161H1008.73V157H1004.73V161ZM1029.33 479L1026.4 481.727L1029.33 479ZM1167.33 479L1170.25 481.727L1167.33 479ZM1191.93 161V157H1187.93V161H1191.93ZM1287.93 161H1291.93V157H1287.93V161ZM1237.53 538.4L1240.34 541.245L1237.53 538.4ZM1097.73 584.2C1038.89 584.2 993.407 567.834 960.74 535.555L955.117 541.245C989.649 575.366 1037.37 592.2 1097.73 592.2V584.2ZM960.74 535.555C928.112 503.315 911.528 457.07 911.528 396.2H903.528C903.528 458.53 920.545 507.085 955.117 541.245L960.74 535.555ZM911.528 396.2V161H903.528V396.2H911.528ZM907.528 165H1004.73V157H907.528V165ZM1000.73 161V392.6H1008.73V161H1000.73ZM1000.73 392.6C1000.73 432.984 1008.98 463.028 1026.4 481.727L1032.25 476.273C1016.88 459.772 1008.73 432.216 1008.73 392.6H1000.73ZM1026.4 481.727C1043.73 500.32 1067.89 509.4 1098.33 509.4V501.4C1069.56 501.4 1047.73 492.88 1032.25 476.273L1026.4 481.727ZM1098.33 509.4C1128.76 509.4 1152.93 500.32 1170.25 481.727L1164.4 476.273C1148.93 492.88 1127.09 501.4 1098.33 501.4V509.4ZM1170.25 481.727C1187.68 463.028 1195.93 432.984 1195.93 392.6H1187.93C1187.93 432.216 1179.78 459.772 1164.4 476.273L1170.25 481.727ZM1195.93 392.6V161H1187.93V392.6H1195.93ZM1191.93 165H1287.93V157H1191.93V165ZM1283.93 161V396.2H1291.93V161H1283.93ZM1283.93 396.2C1283.93 457.07 1267.34 503.315 1234.72 535.555L1240.34 541.245C1274.91 507.085 1291.93 458.53 1291.93 396.2H1283.93ZM1234.72 535.555C1202.05 567.834 1156.57 584.2 1097.73 584.2V592.2C1158.09 592.2 1205.81 575.366 1240.34 541.245L1234.72 535.555ZM1383.98 581H1379.98V585H1383.98V581ZM1383.98 161V157H1379.98V161H1383.98ZM1695.38 187.4L1693.57 190.969L1693.59 190.978L1693.61 190.986L1695.38 187.4ZM1776.98 482L1780.37 484.128L1780.37 484.118L1780.38 484.108L1776.98 482ZM1695.38 555.2L1697.15 558.786L1697.17 558.778L1697.18 558.769L1695.38 555.2ZM1481.18 501.2H1477.18V505.2H1481.18V501.2ZM1642.58 485.6L1644.4 489.164L1644.41 489.157L1644.42 489.15L1642.58 485.6ZM1690.58 440L1687.14 437.963L1687.12 437.989L1687.11 438.015L1690.58 440ZM1690.58 302L1687.11 303.985L1687.13 304.027L1687.16 304.068L1690.58 302ZM1642.58 257L1640.71 260.535L1640.75 260.557L1640.79 260.578L1642.58 257ZM1481.18 240.8V236.8H1477.18V240.8H1481.18ZM1387.98 581V161H1379.98V581H1387.98ZM1383.98 165H1574.78V157H1383.98V165ZM1574.78 165C1619.86 165 1659.42 173.697 1693.57 190.969L1697.18 183.831C1661.74 165.903 1620.9 157 1574.78 157V165ZM1693.61 190.986C1727.78 207.877 1754.41 231.588 1773.59 262.128L1780.37 257.872C1760.35 226.012 1732.58 201.323 1697.15 183.814L1693.61 190.986ZM1773.59 262.128C1792.73 292.593 1802.38 328.829 1802.38 371H1810.38C1810.38 327.571 1800.43 289.807 1780.37 257.872L1773.59 262.128ZM1802.38 371C1802.38 412.762 1792.73 449.01 1773.58 479.892L1780.38 484.108C1800.42 451.79 1810.38 414.038 1810.38 371H1802.38ZM1773.59 479.872C1754.4 510.42 1727.77 534.339 1693.57 551.631L1697.18 558.769C1732.59 540.861 1760.36 515.979 1780.37 484.128L1773.59 479.872ZM1693.61 551.614C1659.45 568.498 1619.87 577 1574.78 577V585C1620.89 585 1661.71 576.302 1697.15 558.786L1693.61 551.614ZM1574.78 577H1383.98V585H1574.78V577ZM1481.18 505.2H1569.98V497.2H1481.18V505.2ZM1569.98 505.2C1598.47 505.2 1623.32 499.907 1644.4 489.164L1640.76 482.036C1621.04 492.093 1597.49 497.2 1569.98 497.2V505.2ZM1644.42 489.15C1665.88 478.01 1682.46 462.279 1694.05 441.985L1687.11 438.015C1676.3 456.921 1660.88 471.59 1640.74 482.05L1644.42 489.15ZM1694.02 442.037C1706.04 421.728 1711.98 398.001 1711.98 371H1703.98C1703.98 396.799 1698.32 419.072 1687.14 437.963L1694.02 442.037ZM1711.98 371C1711.98 343.614 1706.05 319.867 1694 299.932L1687.16 304.068C1698.31 322.532 1703.98 344.786 1703.98 371H1711.98ZM1694.05 300.015C1682.45 279.708 1665.85 264.164 1644.37 253.422L1640.79 260.578C1660.91 270.636 1676.31 285.092 1687.11 303.985L1694.05 300.015ZM1644.45 253.465C1623.36 242.301 1598.49 236.8 1569.98 236.8V244.8C1597.46 244.8 1621 250.099 1640.71 260.535L1644.45 253.465ZM1569.98 236.8H1481.18V244.8H1569.98V236.8ZM1477.18 240.8V501.2H1485.18V240.8H1477.18Z" fill="#02E63B" fill-opacity="0.5"/>
</svg>
