<svg width="51" height="50" viewBox="0 0 51 50" fill="none" xmlns="http://www.w3.org/2000/svg">
<circle cx="25.2949" cy="25" r="25" fill="#292929"/>
<path d="M12.2949 33.5601C15.2013 33.7267 17.7427 33.0347 20.2213 31.2021C17.7176 30.7663 15.9813 29.6001 15.0377 27.1908C15.7674 27.0883 16.4091 27.2805 17.164 26.973C14.698 25.8708 13.1001 24.2176 13.0372 21.3598C13.8173 21.4239 14.4086 21.9493 15.3397 21.8724C13.075 19.6169 12.383 17.1563 13.8047 14.1703C16.17 16.9384 18.938 18.8223 22.3224 19.7066C22.5111 19.7578 22.6873 19.8091 22.876 19.8476C23.7441 20.0526 24.7758 20.4883 25.3042 20.4242C26.2101 20.3089 25.3043 19.2452 25.5307 17.8612C26.2479 13.5552 30.903 11.5944 34.3504 14.119C35.3569 14.8623 36.1495 14.8495 37.1435 14.401C37.6593 14.1703 38.1878 13.9396 38.8043 13.6705C38.6659 14.9008 37.7348 15.58 36.9925 16.4899C37.8355 16.6821 38.5149 16.4386 39.2949 16.1823C39.0307 17.0666 38.3765 17.5664 37.7851 18.0534C37.1686 18.5532 36.9296 19.0786 36.9044 19.8988C36.527 32.317 22.6747 41.9158 13.2008 34.2778C12.2823 33.5345 13.1756 34.2778 12.2949 33.5601Z" fill="white"/>
</svg>
