<svg width="184" height="27" viewBox="0 0 184 27" fill="none" xmlns="http://www.w3.org/2000/svg">
<path d="M71.2077 0H72.1086C77.0299 0.17373 81.6679 3.36352 83.5974 7.91752C85.3738 11.9475 84.9545 16.8632 82.4839 20.5115C80.3958 23.7042 76.8599 25.8857 73.0776 26.2987C69.3632 26.7515 65.493 25.4984 62.742 22.9494C60.0051 20.483 58.3987 16.8062 58.4525 13.1095C58.444 9.28458 60.2204 5.51663 63.15 3.08442C65.3854 1.17054 68.2809 0.108225 71.2077 0ZM69.5559 4.73627C66.0427 5.58499 63.3766 8.91718 63.167 12.5228C62.861 15.9376 64.7451 19.435 67.7965 20.9843C70.6524 22.5108 74.3695 22.0893 76.8373 19.996C79.9737 17.4698 80.9086 12.6851 79.0217 9.13079C77.3614 5.7103 73.2363 3.73092 69.5559 4.73627Z" fill="#02E63B"/>
<path d="M0 0.774672C1.39961 0.495565 2.84173 0.635119 4.25834 0.655055C4.66916 0.58955 4.68615 1.13637 4.69465 1.40978C4.69749 7.02325 4.69182 12.6396 4.69465 18.253C9.17115 12.6481 13.6278 7.02895 18.0873 1.41548C18.3933 1.04808 18.7503 0.620879 19.2773 0.646511C21.0112 0.592398 22.7508 0.620878 24.4876 0.660751C24.1079 1.56073 23.4223 2.26134 22.8301 3.01607C16.9994 10.3526 11.1629 17.6863 5.33496 25.0257C5.04597 25.3475 4.73149 25.7604 4.247 25.7377C2.83323 25.8174 1.41378 25.7718 0 25.7063V0.774672Z" fill="#02E63B"/>
<path d="M30.7944 2.48635C31.4007 1.70599 32.0608 0.751899 33.1374 0.666458C34.3387 0.598106 35.5485 0.586713 36.7498 0.666458C37.1323 0.871517 36.9878 1.34999 37.0303 1.69745C37.0161 8.72639 37.0275 15.7553 37.0246 22.7871C37.0133 23.7697 37.0926 24.7608 36.9226 25.7348C35.5712 25.7718 34.2197 25.7889 32.8683 25.7519C32.3725 25.7946 32.0042 25.4215 31.7237 25.0684C29.5789 22.3713 27.4483 19.6685 25.2866 16.9857C23.1588 19.6571 21.0311 22.3314 18.9118 25.0086C18.6313 25.3304 18.3282 25.7462 17.8494 25.7377C16.1098 25.806 14.3673 25.7548 12.6249 25.7519C12.5767 25.2962 12.9451 24.9772 13.1802 24.6383C19.062 17.2619 24.9268 9.87414 30.7944 2.48635ZM27.896 13.1892C29.3693 15.049 30.8425 16.9059 32.3243 18.76C32.3215 15.0547 32.3356 11.3523 32.3158 7.64698C30.8284 9.48396 29.3749 11.3466 27.896 13.1892Z" fill="#02E63B"/>
<path d="M42.6572 1.72874C42.7166 1.36989 42.507 0.694905 43.0566 0.655032C44.4846 0.677816 45.9749 0.430038 47.366 0.811674C47.3518 7.63555 47.3603 14.4594 47.3603 21.2833C50.9755 21.3118 54.5907 21.2264 58.2002 21.3317C57.7327 22.4368 56.7949 23.2371 56.1206 24.2082C55.5625 24.8348 55.1063 25.8573 54.1175 25.7604C50.3182 25.7319 46.516 25.8459 42.7223 25.7006C42.5807 17.7119 42.7081 9.71747 42.6572 1.72874Z" fill="#02E63B"/>
<path d="M88.8955 2.01355C88.938 1.52084 88.7028 0.56105 89.4904 0.635099C95.7405 0.612314 101.993 0.635099 108.244 0.623706C108.561 0.600922 109.147 0.666427 109.051 1.13635C109.043 3.00751 109.164 4.8986 108.983 6.75836C107.088 9.45545 104.889 11.9446 102.877 14.5591C105.555 17.9226 108.218 21.2976 110.91 24.6497C111.156 24.9772 111.456 25.3076 111.473 25.7433C109.734 25.7661 107.994 25.7946 106.255 25.7433C105.614 25.7376 105.28 25.1025 104.906 24.681C102.271 21.2719 99.4747 17.9825 96.9192 14.5135C99.3812 11.3608 101.9 8.25358 104.371 5.10935C100.781 5.10651 97.1911 5.10366 93.6014 5.1122C93.5618 11.9731 93.6751 18.8369 93.5448 25.6949C92.0205 25.8088 90.4849 25.8117 88.9606 25.6949C88.8218 17.803 88.9521 9.90829 88.8955 2.01355Z" fill="#02E63B"/>
<path d="M115.38 1.40123C115.344 1.08795 115.446 0.563912 115.876 0.643657C117.233 0.646505 118.61 0.532584 119.956 0.709161C120.633 1.05377 120.996 1.78856 121.486 2.34108C127.359 9.72318 133.221 17.1138 139.103 24.4874C139.381 24.8719 139.792 25.2307 139.78 25.749C138.055 25.7604 136.324 25.7975 134.598 25.7433C134.111 25.769 133.788 25.3589 133.505 25.0256C131.383 22.34 129.246 19.6628 127.116 16.9828C124.962 19.6628 122.829 22.3656 120.69 25.0598C120.407 25.4073 120.047 25.7889 119.557 25.7519C118.321 25.7804 117.08 25.7861 115.845 25.7433C115.301 25.8202 115.403 25.1196 115.378 24.7921C115.386 16.9942 115.378 9.19629 115.38 1.40123ZM120.075 7.63557C120.067 11.3437 120.072 15.0518 120.072 18.7571C121.56 16.9088 123.033 15.049 124.509 13.1892C123.019 11.3466 121.565 9.4754 120.075 7.63557Z" fill="#02E63B"/>
<path d="M136.25 0.825935C136.921 0.412971 137.802 0.712014 138.556 0.623725C139.48 0.723406 140.689 0.29905 141.352 1.16485C145.897 6.85237 150.416 12.5627 154.955 18.2587C154.986 12.4601 154.89 6.65585 155 0.862959C155.077 0.811695 155.224 0.709166 155.3 0.657901C156.598 0.598093 157.907 0.603789 159.207 0.652205C159.794 0.635117 159.604 1.35852 159.655 1.72306C159.607 9.71464 159.729 17.7091 159.596 25.6949C158.25 25.8174 156.898 25.7661 155.55 25.7576C155.04 25.8003 154.646 25.4585 154.363 25.0798C149.872 19.4321 145.393 13.7788 140.891 8.13968C140.857 11.6342 140.95 15.1316 140.842 18.6233C140.46 18.5179 140.18 18.2587 139.956 17.9483C138.839 16.5015 137.675 15.0917 136.553 13.6478C136.071 13.1009 136.207 12.3377 136.182 11.6684C136.238 8.05424 136.1 4.43439 136.25 0.825935Z" fill="#02E63B"/>
<path d="M162.959 0.874332C163.208 0.546809 163.673 0.663578 164.03 0.618009C168.659 0.629402 173.289 0.63225 177.918 0.618009C178.626 0.683514 179.488 0.438584 180.083 0.939837C181.139 2.08475 182.052 3.36351 183.026 4.57962V5.10081C180.23 5.1179 177.434 5.09796 174.637 5.1122C174.609 11.9817 174.722 18.8511 174.603 25.7177C173.068 25.7832 171.526 25.8145 169.994 25.6978C169.911 18.8369 169.971 11.9731 169.937 5.10935C167.696 5.06663 165.449 5.18055 163.214 5.06379C163.149 4.99828 163.021 4.87012 162.959 4.80461C162.862 3.50022 162.874 2.17873 162.959 0.874332Z" fill="#02E63B"/>
</svg>
